<svg version="1.1" id="Layer_1" xmlns="http://www.w3.org/2000/svg" xmlns:xlink="http://www.w3.org/1999/xlink" x="0px" y="0px"
	 width="100%" viewBox="0 0 100 100" enable-background="new 0 0 100 100" xml:space="preserve">
<path fill="#000000" opacity="1.000000" stroke="none" 
	d="
M59.000000,101.000000 
	C39.333336,101.000000 20.166674,101.000000 1.000008,101.000000 
	C1.000005,67.666679 1.000005,34.333351 1.000003,1.000021 
	C34.333317,1.000014 67.666634,1.000014 100.999969,1.000007 
	C100.999977,34.333313 100.999977,67.666626 100.999985,100.999969 
	C87.166664,101.000000 73.333336,101.000000 59.000000,101.000000 
M13.067270,55.544083 
	C13.372782,55.641323 13.678293,55.738560 14.911685,55.991570 
	C39.588470,55.991570 64.265259,55.991570 89.000061,55.991570 
	C89.000061,54.616261 88.997337,53.952038 89.000481,53.287842 
	C89.034988,46.000111 89.035233,45.999931 81.773140,45.999897 
	C60.329475,45.999802 38.885807,45.995701 17.442152,46.009140 
	C16.004002,46.010044 14.565933,46.144070 13.166121,46.214256 
	C13.166121,49.393986 13.166121,52.202374 13.067270,55.544083 
M88.220963,34.948105 
	C88.575752,32.125534 88.930534,29.302963 89.310425,26.280687 
	C63.498177,26.280687 38.352531,26.280687 13.277130,26.280687 
	C13.277130,29.301647 13.277130,32.035118 13.277130,34.996426 
	C38.123562,34.996426 62.693535,34.996426 88.220963,34.948105 
M37.500008,67.000450 
	C29.396879,67.000450 21.293751,67.000450 13.288390,67.000450 
	C13.288390,70.312492 13.288390,73.051254 13.288390,75.717201 
	C38.651737,75.717201 63.725559,75.717201 88.711578,75.717201 
	C88.711578,72.688339 88.711578,69.949570 88.711578,67.000450 
	C71.782669,67.000450 55.141335,67.000450 37.500008,67.000450 
z"/>
<path fill="#FEF7FF" opacity="1.000000" stroke="none" 
	d="
M13.166121,55.010761 
	C13.166121,52.202374 13.166121,49.393986 13.166121,46.214256 
	C14.565933,46.144070 16.004002,46.010044 17.442152,46.009140 
	C38.885807,45.995701 60.329475,45.999802 81.773140,45.999897 
	C89.035233,45.999931 89.034988,46.000111 89.000481,53.287842 
	C88.997337,53.952038 89.000061,54.616261 89.000061,55.991570 
	C64.265259,55.991570 39.588470,55.991570 14.355061,55.737083 
	C13.634185,55.262989 13.423413,55.105709 13.166121,55.010761 
z"/>
<path fill="#FEF7FF" opacity="1.000000" stroke="none" 
	d="
M87.742233,34.972267 
	C62.693535,34.996426 38.123562,34.996426 13.277130,34.996426 
	C13.277130,32.035118 13.277130,29.301647 13.277130,26.280687 
	C38.352531,26.280687 63.498177,26.280687 89.310425,26.280687 
	C88.930534,29.302963 88.575752,32.125534 87.742233,34.972267 
z"/>
<path fill="#FEF7FF" opacity="1.000000" stroke="none" 
	d="
M38.000008,67.000450 
	C55.141335,67.000450 71.782669,67.000450 88.711578,67.000450 
	C88.711578,69.949570 88.711578,72.688339 88.711578,75.717201 
	C63.725559,75.717201 38.651737,75.717201 13.288390,75.717201 
	C13.288390,73.051254 13.288390,70.312492 13.288390,67.000450 
	C21.293751,67.000450 29.396879,67.000450 38.000008,67.000450 
z"/>
<path fill="#FFFCFF" opacity="1.000000" stroke="none" 
	d="
M13.116695,55.277420 
	C13.423413,55.105709 13.634185,55.262989 13.891121,55.659199 
	C13.678293,55.738560 13.372782,55.641323 13.116695,55.277420 
z"/>
</svg>